<?xml version="1.0" encoding="UTF-8" standalone="no"?>
<!DOCTYPE svg PUBLIC "-//W3C//DTD SVG 1.1//EN"
 "http://www.w3.org/Graphics/SVG/1.1/DTD/svg11.dtd">
<!-- Generated by graphviz version 2.43.0 (0)
 -->
<!-- Title: snakemake_dag Pages: 1 -->
<svg width="340pt" height="620pt"
 viewBox="0.00 0.00 340.00 620.00" xmlns="http://www.w3.org/2000/svg" xmlns:xlink="http://www.w3.org/1999/xlink">
<g id="graph0" class="graph" transform="scale(1 1) rotate(0) translate(4 616)">
<title>snakemake_dag</title>
<polygon fill="white" stroke="transparent" points="-4,4 -4,-616 336,-616 336,4 -4,4"/>
<!-- 0 -->
<g id="node1" class="node">
<title>0</title>
<path fill="none" stroke="#d85656" stroke-width="2" d="M131,-36C131,-36 101,-36 101,-36 95,-36 89,-30 89,-24 89,-24 89,-12 89,-12 89,-6 95,0 101,0 101,0 131,0 131,0 137,0 143,-6 143,-12 143,-12 143,-24 143,-24 143,-30 137,-36 131,-36"/>
<text text-anchor="middle" x="116" y="-15.5" font-family="sans" font-size="10.00">all</text>
</g>
<!-- 1 -->
<g id="node2" class="node">
<title>1</title>
<path fill="none" stroke="#59d856" stroke-width="2" d="M42,-108C42,-108 12,-108 12,-108 6,-108 0,-102 0,-96 0,-96 0,-84 0,-84 0,-78 6,-72 12,-72 12,-72 42,-72 42,-72 48,-72 54,-78 54,-84 54,-84 54,-96 54,-96 54,-102 48,-108 42,-108"/>
<text text-anchor="middle" x="27" y="-87.5" font-family="sans" font-size="10.00">fastqc</text>
</g>
<!-- 1&#45;&gt;0 -->
<g id="edge1" class="edge">
<title>1&#45;&gt;0</title>
<path fill="none" stroke="grey" stroke-width="2" d="M49,-71.7C60.21,-62.88 74,-52.03 86.15,-42.47"/>
<polygon fill="grey" stroke="grey" stroke-width="2" points="88.56,-45.04 94.25,-36.1 84.23,-39.54 88.56,-45.04"/>
</g>
<!-- 2 -->
<g id="node3" class="node">
<title>2</title>
<path fill="none" stroke="#b6d856" stroke-width="2" d="M148,-108C148,-108 84,-108 84,-108 78,-108 72,-102 72,-96 72,-96 72,-84 72,-84 72,-78 78,-72 84,-72 84,-72 148,-72 148,-72 154,-72 160,-78 160,-84 160,-84 160,-96 160,-96 160,-102 154,-108 148,-108"/>
<text text-anchor="middle" x="116" y="-87.5" font-family="sans" font-size="10.00">create_bc_plots</text>
</g>
<!-- 2&#45;&gt;0 -->
<g id="edge3" class="edge">
<title>2&#45;&gt;0</title>
<path fill="none" stroke="grey" stroke-width="2" d="M116,-71.7C116,-63.98 116,-54.71 116,-46.11"/>
<polygon fill="grey" stroke="grey" stroke-width="2" points="119.5,-46.1 116,-36.1 112.5,-46.1 119.5,-46.1"/>
</g>
<!-- 3 -->
<g id="node4" class="node">
<title>3</title>
<path fill="none" stroke="#97d856" stroke-width="2" d="M180.5,-252C180.5,-252 133.5,-252 133.5,-252 127.5,-252 121.5,-246 121.5,-240 121.5,-240 121.5,-228 121.5,-228 121.5,-222 127.5,-216 133.5,-216 133.5,-216 180.5,-216 180.5,-216 186.5,-216 192.5,-222 192.5,-228 192.5,-228 192.5,-240 192.5,-240 192.5,-246 186.5,-252 180.5,-252"/>
<text text-anchor="middle" x="157" y="-231.5" font-family="sans" font-size="10.00">demultiplex</text>
</g>
<!-- 3&#45;&gt;2 -->
<g id="edge4" class="edge">
<title>3&#45;&gt;2</title>
<path fill="none" stroke="grey" stroke-width="2" d="M144.88,-215.67C138.51,-205.69 131.18,-192.65 127,-180 120.38,-159.95 117.68,-136.17 116.62,-118.23"/>
<polygon fill="grey" stroke="grey" stroke-width="2" points="120.11,-117.99 116.15,-108.16 113.12,-118.31 120.11,-117.99"/>
</g>
<!-- 13 -->
<g id="node14" class="node">
<title>13</title>
<path fill="none" stroke="#567bd8" stroke-width="2" d="M198,-180C198,-180 148,-180 148,-180 142,-180 136,-174 136,-168 136,-168 136,-156 136,-156 136,-150 142,-144 148,-144 148,-144 198,-144 198,-144 204,-144 210,-150 210,-156 210,-156 210,-168 210,-168 210,-174 204,-180 198,-180"/>
<text text-anchor="middle" x="173" y="-159.5" font-family="sans" font-size="10.00">select_reads</text>
</g>
<!-- 3&#45;&gt;13 -->
<g id="edge18" class="edge">
<title>3&#45;&gt;13</title>
<path fill="none" stroke="grey" stroke-width="2" d="M160.96,-215.7C162.72,-207.98 164.84,-198.71 166.8,-190.11"/>
<polygon fill="grey" stroke="grey" stroke-width="2" points="170.27,-190.63 169.09,-180.1 163.45,-189.07 170.27,-190.63"/>
</g>
<!-- 4 -->
<g id="node5" class="node">
<title>4</title>
<path fill="none" stroke="#56d8d8" stroke-width="2" d="M186.5,-612C186.5,-612 139.5,-612 139.5,-612 133.5,-612 127.5,-606 127.5,-600 127.5,-600 127.5,-588 127.5,-588 127.5,-582 133.5,-576 139.5,-576 139.5,-576 186.5,-576 186.5,-576 192.5,-576 198.5,-582 198.5,-588 198.5,-588 198.5,-600 198.5,-600 198.5,-606 192.5,-612 186.5,-612"/>
<text text-anchor="middle" x="163" y="-591.5" font-family="sans" font-size="10.00">quality_trim</text>
</g>
<!-- 4&#45;&gt;3 -->
<g id="edge5" class="edge">
<title>4&#45;&gt;3</title>
<path fill="none" stroke="grey" stroke-width="2" d="M162.01,-575.96C160.56,-549.31 158,-496.14 158,-451 158,-451 158,-451 158,-377 158,-337 157.6,-290.65 157.3,-262.08"/>
<polygon fill="grey" stroke="grey" stroke-width="2" points="160.8,-262.01 157.2,-252.05 153.8,-262.09 160.8,-262.01"/>
</g>
<!-- 10 -->
<g id="node11" class="node">
<title>10</title>
<path fill="none" stroke="#d89556" stroke-width="2" d="M271,-540C271,-540 233,-540 233,-540 227,-540 221,-534 221,-528 221,-528 221,-516 221,-516 221,-510 227,-504 233,-504 233,-504 271,-504 271,-504 277,-504 283,-510 283,-516 283,-516 283,-528 283,-528 283,-534 277,-540 271,-540"/>
<text text-anchor="middle" x="252" y="-519.5" font-family="sans" font-size="10.00">bwa_align</text>
</g>
<!-- 4&#45;&gt;10 -->
<g id="edge15" class="edge">
<title>4&#45;&gt;10</title>
<path fill="none" stroke="grey" stroke-width="2" d="M185,-575.7C196.21,-566.88 210,-556.03 222.15,-546.47"/>
<polygon fill="grey" stroke="grey" stroke-width="2" points="224.56,-549.04 230.25,-540.1 220.23,-543.54 224.56,-549.04"/>
</g>
<!-- 5 -->
<g id="node6" class="node">
<title>5</title>
<path fill="none" stroke="#d6d856" stroke-width="2" d="M257,-108C257,-108 205,-108 205,-108 199,-108 193,-102 193,-96 193,-96 193,-84 193,-84 193,-78 199,-72 205,-72 205,-72 257,-72 257,-72 263,-72 269,-78 269,-84 269,-84 269,-96 269,-96 269,-102 263,-108 257,-108"/>
<text text-anchor="middle" x="231" y="-87.5" font-family="sans" font-size="10.00">count_genes</text>
</g>
<!-- 5&#45;&gt;0 -->
<g id="edge2" class="edge">
<title>5&#45;&gt;0</title>
<path fill="none" stroke="grey" stroke-width="2" d="M202.87,-71.88C187.49,-62.52 168.29,-50.83 151.86,-40.83"/>
<polygon fill="grey" stroke="grey" stroke-width="2" points="153.41,-37.67 143.05,-35.47 149.77,-43.65 153.41,-37.67"/>
</g>
<!-- 6 -->
<g id="node7" class="node">
<title>6</title>
<path fill="none" stroke="#56d87b" stroke-width="2" d="M285,-252C285,-252 223,-252 223,-252 217,-252 211,-246 211,-240 211,-240 211,-228 211,-228 211,-222 217,-216 223,-216 223,-216 285,-216 285,-216 291,-216 297,-222 297,-228 297,-228 297,-240 297,-240 297,-246 291,-252 285,-252"/>
<text text-anchor="middle" x="254" y="-231.5" font-family="sans" font-size="10.00">feature_counts</text>
</g>
<!-- 6&#45;&gt;5 -->
<g id="edge6" class="edge">
<title>6&#45;&gt;5</title>
<path fill="none" stroke="grey" stroke-width="2" d="M251.23,-215.87C247.31,-191.67 240.1,-147.21 235.44,-118.39"/>
<polygon fill="grey" stroke="grey" stroke-width="2" points="238.84,-117.5 233.78,-108.19 231.93,-118.62 238.84,-117.5"/>
</g>
<!-- 12 -->
<g id="node13" class="node">
<title>12</title>
<path fill="none" stroke="#56d89a" stroke-width="2" d="M320,-180C320,-180 278,-180 278,-180 272,-180 266,-174 266,-168 266,-168 266,-156 266,-156 266,-150 272,-144 278,-144 278,-144 320,-144 320,-144 326,-144 332,-150 332,-156 332,-156 332,-168 332,-168 332,-174 326,-180 320,-180"/>
<text text-anchor="middle" x="299" y="-159.5" font-family="sans" font-size="10.00">index_bam</text>
</g>
<!-- 6&#45;&gt;12 -->
<g id="edge17" class="edge">
<title>6&#45;&gt;12</title>
<path fill="none" stroke="grey" stroke-width="2" d="M259.21,-215.7C263.65,-207.47 269.87,-197.48 276.14,-188.42"/>
<polygon fill="grey" stroke="grey" stroke-width="2" points="279.12,-190.27 282.11,-180.1 273.43,-186.19 279.12,-190.27"/>
</g>
<!-- 7 -->
<g id="node8" class="node">
<title>7</title>
<path fill="none" stroke="#d87556" stroke-width="2" d="M272,-324C272,-324 236,-324 236,-324 230,-324 224,-318 224,-312 224,-312 224,-300 224,-300 224,-294 230,-288 236,-288 236,-288 272,-288 272,-288 278,-288 284,-294 284,-300 284,-300 284,-312 284,-312 284,-318 278,-324 272,-324"/>
<text text-anchor="middle" x="254" y="-303.5" font-family="sans" font-size="10.00">bam_sort</text>
</g>
<!-- 7&#45;&gt;6 -->
<g id="edge9" class="edge">
<title>7&#45;&gt;6</title>
<path fill="none" stroke="grey" stroke-width="2" d="M254,-287.7C254,-279.98 254,-270.71 254,-262.11"/>
<polygon fill="grey" stroke="grey" stroke-width="2" points="257.5,-262.1 254,-252.1 250.5,-262.1 257.5,-262.1"/>
</g>
<!-- 7&#45;&gt;12 -->
<g id="edge16" class="edge">
<title>7&#45;&gt;12</title>
<path fill="none" stroke="grey" stroke-width="2" d="M277.75,-287.91C288.55,-278.65 300.2,-266.2 306,-252 314.04,-232.33 311.46,-208.2 307.33,-190.04"/>
<polygon fill="grey" stroke="grey" stroke-width="2" points="310.66,-188.92 304.79,-180.1 303.88,-190.66 310.66,-188.92"/>
</g>
<!-- 8 -->
<g id="node9" class="node">
<title>8</title>
<path fill="none" stroke="#569ad8" stroke-width="2" d="M278,-396C278,-396 228,-396 228,-396 222,-396 216,-390 216,-384 216,-384 216,-372 216,-372 216,-366 222,-360 228,-360 228,-360 278,-360 278,-360 284,-360 290,-366 290,-372 290,-372 290,-384 290,-384 290,-390 284,-396 278,-396"/>
<text text-anchor="middle" x="253" y="-375.5" font-family="sans" font-size="10.00">sam_to_bam</text>
</g>
<!-- 8&#45;&gt;7 -->
<g id="edge11" class="edge">
<title>8&#45;&gt;7</title>
<path fill="none" stroke="grey" stroke-width="2" d="M253.25,-359.7C253.36,-351.98 253.49,-342.71 253.61,-334.11"/>
<polygon fill="grey" stroke="grey" stroke-width="2" points="257.11,-334.15 253.76,-324.1 250.11,-334.05 257.11,-334.15"/>
</g>
<!-- 9 -->
<g id="node10" class="node">
<title>9</title>
<path fill="none" stroke="#56b9d8" stroke-width="2" d="M286.5,-468C286.5,-468 219.5,-468 219.5,-468 213.5,-468 207.5,-462 207.5,-456 207.5,-456 207.5,-444 207.5,-444 207.5,-438 213.5,-432 219.5,-432 219.5,-432 286.5,-432 286.5,-432 292.5,-432 298.5,-438 298.5,-444 298.5,-444 298.5,-456 298.5,-456 298.5,-462 292.5,-468 286.5,-468"/>
<text text-anchor="middle" x="253" y="-447.5" font-family="sans" font-size="10.00">remove_xs_tags</text>
</g>
<!-- 9&#45;&gt;8 -->
<g id="edge12" class="edge">
<title>9&#45;&gt;8</title>
<path fill="none" stroke="grey" stroke-width="2" d="M253,-431.7C253,-423.98 253,-414.71 253,-406.11"/>
<polygon fill="grey" stroke="grey" stroke-width="2" points="256.5,-406.1 253,-396.1 249.5,-406.1 256.5,-406.1"/>
</g>
<!-- 10&#45;&gt;9 -->
<g id="edge13" class="edge">
<title>10&#45;&gt;9</title>
<path fill="none" stroke="grey" stroke-width="2" d="M252.25,-503.7C252.36,-495.98 252.49,-486.71 252.61,-478.11"/>
<polygon fill="grey" stroke="grey" stroke-width="2" points="256.11,-478.15 252.76,-468.1 249.11,-478.05 256.11,-478.15"/>
</g>
<!-- 11 -->
<g id="node12" class="node">
<title>11</title>
<path fill="none" stroke="#d8b456" stroke-width="2" d="M272.5,-612C272.5,-612 231.5,-612 231.5,-612 225.5,-612 219.5,-606 219.5,-600 219.5,-600 219.5,-588 219.5,-588 219.5,-582 225.5,-576 231.5,-576 231.5,-576 272.5,-576 272.5,-576 278.5,-576 284.5,-582 284.5,-588 284.5,-588 284.5,-600 284.5,-600 284.5,-606 278.5,-612 272.5,-612"/>
<text text-anchor="middle" x="252" y="-591.5" font-family="sans" font-size="10.00">bwa_index</text>
</g>
<!-- 11&#45;&gt;10 -->
<g id="edge14" class="edge">
<title>11&#45;&gt;10</title>
<path fill="none" stroke="grey" stroke-width="2" d="M252,-575.7C252,-567.98 252,-558.71 252,-550.11"/>
<polygon fill="grey" stroke="grey" stroke-width="2" points="255.5,-550.1 252,-540.1 248.5,-550.1 255.5,-550.1"/>
</g>
<!-- 12&#45;&gt;5 -->
<g id="edge8" class="edge">
<title>12&#45;&gt;5</title>
<path fill="none" stroke="grey" stroke-width="2" d="M282.19,-143.7C273.87,-135.14 263.69,-124.66 254.61,-115.3"/>
<polygon fill="grey" stroke="grey" stroke-width="2" points="257.09,-112.84 247.62,-108.1 252.07,-117.72 257.09,-112.84"/>
</g>
<!-- 12&#45;&gt;6 -->
<g id="edge10" class="edge">
<title>12&#45;&gt;6</title>
<path fill="none" stroke="grey" stroke-width="2" d="M293.9,-180.1C289.49,-188.3 283.28,-198.28 277.01,-207.36"/>
<polygon fill="grey" stroke="grey" stroke-width="2" points="274.02,-205.53 271.04,-215.7 279.71,-209.61 274.02,-205.53"/>
</g>
<!-- 13&#45;&gt;5 -->
<g id="edge7" class="edge">
<title>13&#45;&gt;5</title>
<path fill="none" stroke="grey" stroke-width="2" d="M187.34,-143.7C194.29,-135.3 202.77,-125.07 210.4,-115.86"/>
<polygon fill="grey" stroke="grey" stroke-width="2" points="213.14,-118.04 216.83,-108.1 207.75,-113.57 213.14,-118.04"/>
</g>
</g>
</svg>
