<?xml version="1.0" encoding="UTF-8" standalone="no"?>
<!DOCTYPE svg PUBLIC "-//W3C//DTD SVG 1.1//EN"
 "http://www.w3.org/Graphics/SVG/1.1/DTD/svg11.dtd">
<!-- Generated by graphviz version 2.43.0 (0)
 -->
<!-- Title: snakemake_dag Pages: 1 -->
<svg width="354pt" height="764pt"
 viewBox="0.00 0.00 353.50 764.00" xmlns="http://www.w3.org/2000/svg" xmlns:xlink="http://www.w3.org/1999/xlink">
<g id="graph0" class="graph" transform="scale(1 1) rotate(0) translate(4 760)">
<title>snakemake_dag</title>
<polygon fill="white" stroke="transparent" points="-4,4 -4,-760 349.5,-760 349.5,4 -4,4"/>
<!-- 0 -->
<g id="node1" class="node">
<title>0</title>
<path fill="none" stroke="#d85656" stroke-width="2" d="M131,-36C131,-36 101,-36 101,-36 95,-36 89,-30 89,-24 89,-24 89,-12 89,-12 89,-6 95,0 101,0 101,0 131,0 131,0 137,0 143,-6 143,-12 143,-12 143,-24 143,-24 143,-30 137,-36 131,-36"/>
<text text-anchor="middle" x="116" y="-15.5" font-family="sans" font-size="10.00">all</text>
</g>
<!-- 1 -->
<g id="node2" class="node">
<title>1</title>
<path fill="none" stroke="#8fd856" stroke-width="2" d="M42,-108C42,-108 12,-108 12,-108 6,-108 0,-102 0,-96 0,-96 0,-84 0,-84 0,-78 6,-72 12,-72 12,-72 42,-72 42,-72 48,-72 54,-78 54,-84 54,-84 54,-96 54,-96 54,-102 48,-108 42,-108"/>
<text text-anchor="middle" x="27" y="-87.5" font-family="sans" font-size="10.00">fastqc</text>
</g>
<!-- 1&#45;&gt;0 -->
<g id="edge3" class="edge">
<title>1&#45;&gt;0</title>
<path fill="none" stroke="grey" stroke-width="2" d="M49,-71.7C60.21,-62.88 74,-52.03 86.15,-42.47"/>
<polygon fill="grey" stroke="grey" stroke-width="2" points="88.56,-45.04 94.25,-36.1 84.23,-39.54 88.56,-45.04"/>
</g>
<!-- 2 -->
<g id="node3" class="node">
<title>2</title>
<path fill="none" stroke="#d8cb56" stroke-width="2" d="M148,-108C148,-108 84,-108 84,-108 78,-108 72,-102 72,-96 72,-96 72,-84 72,-84 72,-78 78,-72 84,-72 84,-72 148,-72 148,-72 154,-72 160,-78 160,-84 160,-84 160,-96 160,-96 160,-102 154,-108 148,-108"/>
<text text-anchor="middle" x="116" y="-87.5" font-family="sans" font-size="10.00">create_bc_plots</text>
</g>
<!-- 2&#45;&gt;0 -->
<g id="edge1" class="edge">
<title>2&#45;&gt;0</title>
<path fill="none" stroke="grey" stroke-width="2" d="M116,-71.7C116,-63.98 116,-54.71 116,-46.11"/>
<polygon fill="grey" stroke="grey" stroke-width="2" points="119.5,-46.1 116,-36.1 112.5,-46.1 119.5,-46.1"/>
</g>
<!-- 3 -->
<g id="node4" class="node">
<title>3</title>
<path fill="none" stroke="#c6d856" stroke-width="2" d="M173.5,-252C173.5,-252 126.5,-252 126.5,-252 120.5,-252 114.5,-246 114.5,-240 114.5,-240 114.5,-228 114.5,-228 114.5,-222 120.5,-216 126.5,-216 126.5,-216 173.5,-216 173.5,-216 179.5,-216 185.5,-222 185.5,-228 185.5,-228 185.5,-240 185.5,-240 185.5,-246 179.5,-252 173.5,-252"/>
<text text-anchor="middle" x="150" y="-231.5" font-family="sans" font-size="10.00">demultiplex</text>
</g>
<!-- 3&#45;&gt;2 -->
<g id="edge4" class="edge">
<title>3&#45;&gt;2</title>
<path fill="none" stroke="grey" stroke-width="2" d="M141.03,-215.79C136.13,-205.64 130.38,-192.39 127,-180 121.45,-159.63 118.69,-135.86 117.32,-118.02"/>
<polygon fill="grey" stroke="grey" stroke-width="2" points="120.82,-117.75 116.66,-108.01 113.83,-118.22 120.82,-117.75"/>
</g>
<!-- 16 -->
<g id="node17" class="node">
<title>16</title>
<path fill="none" stroke="#5673d8" stroke-width="2" d="M198,-180C198,-180 148,-180 148,-180 142,-180 136,-174 136,-168 136,-168 136,-156 136,-156 136,-150 142,-144 148,-144 148,-144 198,-144 198,-144 204,-144 210,-150 210,-156 210,-156 210,-168 210,-168 210,-174 204,-180 198,-180"/>
<text text-anchor="middle" x="173" y="-159.5" font-family="sans" font-size="10.00">select_reads</text>
</g>
<!-- 3&#45;&gt;16 -->
<g id="edge20" class="edge">
<title>3&#45;&gt;16</title>
<path fill="none" stroke="grey" stroke-width="2" d="M155.69,-215.7C158.25,-207.9 161.33,-198.51 164.18,-189.83"/>
<polygon fill="grey" stroke="grey" stroke-width="2" points="167.58,-190.7 167.38,-180.1 160.93,-188.51 167.58,-190.7"/>
</g>
<!-- 4 -->
<g id="node5" class="node">
<title>4</title>
<path fill="none" stroke="#56d892" stroke-width="2" d="M170,-612C170,-612 130,-612 130,-612 124,-612 118,-606 118,-600 118,-600 118,-588 118,-588 118,-582 124,-576 130,-576 130,-576 170,-576 170,-576 176,-576 182,-582 182,-588 182,-588 182,-600 182,-600 182,-606 176,-612 170,-612"/>
<text text-anchor="middle" x="150" y="-591.5" font-family="sans" font-size="10.00">merge_R1</text>
</g>
<!-- 4&#45;&gt;3 -->
<g id="edge5" class="edge">
<title>4&#45;&gt;3</title>
<path fill="none" stroke="grey" stroke-width="2" d="M150,-575.95C150,-549.29 150,-496.11 150,-451 150,-451 150,-451 150,-377 150,-337 150,-290.65 150,-262.08"/>
<polygon fill="grey" stroke="grey" stroke-width="2" points="153.5,-262.05 150,-252.05 146.5,-262.05 153.5,-262.05"/>
</g>
<!-- 5 -->
<g id="node6" class="node">
<title>5</title>
<path fill="none" stroke="#56d8c9" stroke-width="2" d="M203.5,-756C203.5,-756 156.5,-756 156.5,-756 150.5,-756 144.5,-750 144.5,-744 144.5,-744 144.5,-732 144.5,-732 144.5,-726 150.5,-720 156.5,-720 156.5,-720 203.5,-720 203.5,-720 209.5,-720 215.5,-726 215.5,-732 215.5,-732 215.5,-744 215.5,-744 215.5,-750 209.5,-756 203.5,-756"/>
<text text-anchor="middle" x="180" y="-735.5" font-family="sans" font-size="10.00">quality_trim</text>
</g>
<!-- 5&#45;&gt;4 -->
<g id="edge6" class="edge">
<title>5&#45;&gt;4</title>
<path fill="none" stroke="grey" stroke-width="2" d="M176.38,-719.87C171.25,-695.56 161.79,-650.82 155.71,-622.01"/>
<polygon fill="grey" stroke="grey" stroke-width="2" points="159.12,-621.25 153.63,-612.19 152.27,-622.7 159.12,-621.25"/>
</g>
<!-- 12 -->
<g id="node13" class="node">
<title>12</title>
<path fill="none" stroke="#56d8a9" stroke-width="2" d="M230,-684C230,-684 190,-684 190,-684 184,-684 178,-678 178,-672 178,-672 178,-660 178,-660 178,-654 184,-648 190,-648 190,-648 230,-648 230,-648 236,-648 242,-654 242,-660 242,-660 242,-672 242,-672 242,-678 236,-684 230,-684"/>
<text text-anchor="middle" x="210" y="-663.5" font-family="sans" font-size="10.00">merge_R2</text>
</g>
<!-- 5&#45;&gt;12 -->
<g id="edge17" class="edge">
<title>5&#45;&gt;12</title>
<path fill="none" stroke="grey" stroke-width="2" d="M187.42,-719.7C190.79,-711.81 194.87,-702.3 198.62,-693.55"/>
<polygon fill="grey" stroke="grey" stroke-width="2" points="201.95,-694.67 202.67,-684.1 195.51,-691.92 201.95,-694.67"/>
</g>
<!-- 6 -->
<g id="node7" class="node">
<title>6</title>
<path fill="none" stroke="#d8ac56" stroke-width="2" d="M257,-108C257,-108 205,-108 205,-108 199,-108 193,-102 193,-96 193,-96 193,-84 193,-84 193,-78 199,-72 205,-72 205,-72 257,-72 257,-72 263,-72 269,-78 269,-84 269,-84 269,-96 269,-96 269,-102 263,-108 257,-108"/>
<text text-anchor="middle" x="231" y="-87.5" font-family="sans" font-size="10.00">count_genes</text>
</g>
<!-- 6&#45;&gt;0 -->
<g id="edge2" class="edge">
<title>6&#45;&gt;0</title>
<path fill="none" stroke="grey" stroke-width="2" d="M202.87,-71.88C187.49,-62.52 168.29,-50.83 151.86,-40.83"/>
<polygon fill="grey" stroke="grey" stroke-width="2" points="153.41,-37.67 143.05,-35.47 149.77,-43.65 153.41,-37.67"/>
</g>
<!-- 7 -->
<g id="node8" class="node">
<title>7</title>
<path fill="none" stroke="#70d856" stroke-width="2" d="M292,-252C292,-252 230,-252 230,-252 224,-252 218,-246 218,-240 218,-240 218,-228 218,-228 218,-222 224,-216 230,-216 230,-216 292,-216 292,-216 298,-216 304,-222 304,-228 304,-228 304,-240 304,-240 304,-246 298,-252 292,-252"/>
<text text-anchor="middle" x="261" y="-231.5" font-family="sans" font-size="10.00">feature_counts</text>
</g>
<!-- 7&#45;&gt;6 -->
<g id="edge7" class="edge">
<title>7&#45;&gt;6</title>
<path fill="none" stroke="grey" stroke-width="2" d="M257.38,-215.87C252.25,-191.56 242.79,-146.82 236.71,-118.01"/>
<polygon fill="grey" stroke="grey" stroke-width="2" points="240.12,-117.25 234.63,-108.19 233.27,-118.7 240.12,-117.25"/>
</g>
<!-- 15 -->
<g id="node16" class="node">
<title>15</title>
<path fill="none" stroke="#56d873" stroke-width="2" d="M333.5,-180C333.5,-180 278.5,-180 278.5,-180 272.5,-180 266.5,-174 266.5,-168 266.5,-168 266.5,-156 266.5,-156 266.5,-150 272.5,-144 278.5,-144 278.5,-144 333.5,-144 333.5,-144 339.5,-144 345.5,-150 345.5,-156 345.5,-156 345.5,-168 345.5,-168 345.5,-174 339.5,-180 333.5,-180"/>
<text text-anchor="middle" x="306" y="-159.5" font-family="sans" font-size="10.00">index_fc_bam</text>
</g>
<!-- 7&#45;&gt;15 -->
<g id="edge19" class="edge">
<title>7&#45;&gt;15</title>
<path fill="none" stroke="grey" stroke-width="2" d="M272.12,-215.7C277.36,-207.56 283.7,-197.69 289.48,-188.7"/>
<polygon fill="grey" stroke="grey" stroke-width="2" points="292.54,-190.41 295,-180.1 286.65,-186.62 292.54,-190.41"/>
</g>
<!-- 8 -->
<g id="node9" class="node">
<title>8</title>
<path fill="none" stroke="#5692d8" stroke-width="2" d="M277,-396C277,-396 203,-396 203,-396 197,-396 191,-390 191,-384 191,-384 191,-372 191,-372 191,-366 197,-360 203,-360 203,-360 277,-360 277,-360 283,-360 289,-366 289,-372 289,-372 289,-384 289,-384 289,-390 283,-396 277,-396"/>
<text text-anchor="middle" x="240" y="-375.5" font-family="sans" font-size="10.00">sam_to_bam_sort</text>
</g>
<!-- 8&#45;&gt;7 -->
<g id="edge11" class="edge">
<title>8&#45;&gt;7</title>
<path fill="none" stroke="grey" stroke-width="2" d="M235.42,-359.67C231.37,-341.54 226.96,-312.37 233,-288 235.29,-278.75 239.53,-269.34 244.02,-261.07"/>
<polygon fill="grey" stroke="grey" stroke-width="2" points="247.13,-262.68 249.11,-252.28 241.07,-259.17 247.13,-262.68"/>
</g>
<!-- 14 -->
<g id="node15" class="node">
<title>14</title>
<path fill="none" stroke="#59d856" stroke-width="2" d="M296,-324C296,-324 254,-324 254,-324 248,-324 242,-318 242,-312 242,-312 242,-300 242,-300 242,-294 248,-288 254,-288 254,-288 296,-288 296,-288 302,-288 308,-294 308,-300 308,-300 308,-312 308,-312 308,-318 302,-324 296,-324"/>
<text text-anchor="middle" x="275" y="-303.5" font-family="sans" font-size="10.00">index_bam</text>
</g>
<!-- 8&#45;&gt;14 -->
<g id="edge18" class="edge">
<title>8&#45;&gt;14</title>
<path fill="none" stroke="grey" stroke-width="2" d="M248.65,-359.7C252.64,-351.73 257.45,-342.1 261.87,-333.26"/>
<polygon fill="grey" stroke="grey" stroke-width="2" points="265.11,-334.61 266.45,-324.1 258.85,-331.48 265.11,-334.61"/>
</g>
<!-- 9 -->
<g id="node10" class="node">
<title>9</title>
<path fill="none" stroke="#56a9d8" stroke-width="2" d="M265,-468C265,-468 215,-468 215,-468 209,-468 203,-462 203,-456 203,-456 203,-444 203,-444 203,-438 209,-432 215,-432 215,-432 265,-432 265,-432 271,-432 277,-438 277,-444 277,-444 277,-456 277,-456 277,-462 271,-468 265,-468"/>
<text text-anchor="middle" x="240" y="-447.5" font-family="sans" font-size="10.00">sam_to_bam</text>
</g>
<!-- 9&#45;&gt;8 -->
<g id="edge12" class="edge">
<title>9&#45;&gt;8</title>
<path fill="none" stroke="grey" stroke-width="2" d="M240,-431.7C240,-423.98 240,-414.71 240,-406.11"/>
<polygon fill="grey" stroke="grey" stroke-width="2" points="243.5,-406.1 240,-396.1 236.5,-406.1 243.5,-406.1"/>
</g>
<!-- 10 -->
<g id="node11" class="node">
<title>10</title>
<path fill="none" stroke="#56c9d8" stroke-width="2" d="M273.5,-540C273.5,-540 206.5,-540 206.5,-540 200.5,-540 194.5,-534 194.5,-528 194.5,-528 194.5,-516 194.5,-516 194.5,-510 200.5,-504 206.5,-504 206.5,-504 273.5,-504 273.5,-504 279.5,-504 285.5,-510 285.5,-516 285.5,-516 285.5,-528 285.5,-528 285.5,-534 279.5,-540 273.5,-540"/>
<text text-anchor="middle" x="240" y="-519.5" font-family="sans" font-size="10.00">remove_xs_tags</text>
</g>
<!-- 10&#45;&gt;9 -->
<g id="edge13" class="edge">
<title>10&#45;&gt;9</title>
<path fill="none" stroke="grey" stroke-width="2" d="M240,-503.7C240,-495.98 240,-486.71 240,-478.11"/>
<polygon fill="grey" stroke="grey" stroke-width="2" points="243.5,-478.1 240,-468.1 236.5,-478.1 243.5,-478.1"/>
</g>
<!-- 11 -->
<g id="node12" class="node">
<title>11</title>
<path fill="none" stroke="#d87556" stroke-width="2" d="M259,-612C259,-612 221,-612 221,-612 215,-612 209,-606 209,-600 209,-600 209,-588 209,-588 209,-582 215,-576 221,-576 221,-576 259,-576 259,-576 265,-576 271,-582 271,-588 271,-588 271,-600 271,-600 271,-606 265,-612 259,-612"/>
<text text-anchor="middle" x="240" y="-591.5" font-family="sans" font-size="10.00">bwa_align</text>
</g>
<!-- 11&#45;&gt;10 -->
<g id="edge14" class="edge">
<title>11&#45;&gt;10</title>
<path fill="none" stroke="grey" stroke-width="2" d="M240,-575.7C240,-567.98 240,-558.71 240,-550.11"/>
<polygon fill="grey" stroke="grey" stroke-width="2" points="243.5,-550.1 240,-540.1 236.5,-550.1 243.5,-550.1"/>
</g>
<!-- 12&#45;&gt;11 -->
<g id="edge16" class="edge">
<title>12&#45;&gt;11</title>
<path fill="none" stroke="grey" stroke-width="2" d="M217.42,-647.7C220.79,-639.81 224.87,-630.3 228.62,-621.55"/>
<polygon fill="grey" stroke="grey" stroke-width="2" points="231.95,-622.67 232.67,-612.1 225.51,-619.92 231.95,-622.67"/>
</g>
<!-- 13 -->
<g id="node14" class="node">
<title>13</title>
<path fill="none" stroke="#d88d56" stroke-width="2" d="M313.5,-684C313.5,-684 272.5,-684 272.5,-684 266.5,-684 260.5,-678 260.5,-672 260.5,-672 260.5,-660 260.5,-660 260.5,-654 266.5,-648 272.5,-648 272.5,-648 313.5,-648 313.5,-648 319.5,-648 325.5,-654 325.5,-660 325.5,-660 325.5,-672 325.5,-672 325.5,-678 319.5,-684 313.5,-684"/>
<text text-anchor="middle" x="293" y="-663.5" font-family="sans" font-size="10.00">bwa_index</text>
</g>
<!-- 13&#45;&gt;11 -->
<g id="edge15" class="edge">
<title>13&#45;&gt;11</title>
<path fill="none" stroke="grey" stroke-width="2" d="M279.9,-647.7C273.61,-639.39 265.95,-629.28 259.04,-620.14"/>
<polygon fill="grey" stroke="grey" stroke-width="2" points="261.78,-617.96 252.95,-612.1 256.2,-622.19 261.78,-617.96"/>
</g>
<!-- 14&#45;&gt;7 -->
<g id="edge10" class="edge">
<title>14&#45;&gt;7</title>
<path fill="none" stroke="grey" stroke-width="2" d="M271.54,-287.7C270,-279.98 268.14,-270.71 266.42,-262.11"/>
<polygon fill="grey" stroke="grey" stroke-width="2" points="269.81,-261.22 264.42,-252.1 262.95,-262.6 269.81,-261.22"/>
</g>
<!-- 15&#45;&gt;6 -->
<g id="edge8" class="edge">
<title>15&#45;&gt;6</title>
<path fill="none" stroke="grey" stroke-width="2" d="M287.46,-143.7C278.2,-135.05 266.84,-124.45 256.74,-115.03"/>
<polygon fill="grey" stroke="grey" stroke-width="2" points="259.02,-112.37 249.33,-108.1 254.25,-117.49 259.02,-112.37"/>
</g>
<!-- 16&#45;&gt;6 -->
<g id="edge9" class="edge">
<title>16&#45;&gt;6</title>
<path fill="none" stroke="grey" stroke-width="2" d="M187.34,-143.7C194.29,-135.3 202.77,-125.07 210.4,-115.86"/>
<polygon fill="grey" stroke="grey" stroke-width="2" points="213.14,-118.04 216.83,-108.1 207.75,-113.57 213.14,-118.04"/>
</g>
</g>
</svg>
